<svg width="28" height="30" viewBox="0 0 28 30" fill="none" xmlns="http://www.w3.org/2000/svg">
<g clip-path="url(#clip0_30383_684)">
<path d="M26.4985 5.06874C26.1703 4.65587 25.7595 4.3238 25.2951 4.09614C24.8308 3.86847 24.3243 3.75079 23.8117 3.75145H4.949L4.9 3.32213C4.79972 2.42977 4.39062 1.60699 3.75024 1.0098C3.10986 0.412607 2.28273 0.0825103 1.42567 0.0820923L1.16667 0.0820923C0.857247 0.0820923 0.560501 0.210956 0.341709 0.440335C0.122916 0.669714 0 0.980819 0 1.30521C0 1.6296 0.122916 1.94071 0.341709 2.17009C0.560501 2.39946 0.857247 2.52833 1.16667 2.52833H1.42567C1.71142 2.52837 1.98723 2.63836 2.20077 2.83743C2.41431 3.0365 2.55073 3.31082 2.58417 3.60834L4.1895 17.9188C4.35616 19.4071 5.03822 20.7794 6.10623 21.7753C7.17423 22.7712 8.55383 23.3214 9.98317 23.3213H22.1667C22.4761 23.3213 22.7728 23.1925 22.9916 22.9631C23.2104 22.7337 23.3333 22.4226 23.3333 22.0982C23.3333 21.7738 23.2104 21.4627 22.9916 21.2333C22.7728 21.004 22.4761 20.8751 22.1667 20.8751H9.98317C9.26107 20.873 8.55727 20.6367 7.96826 20.1988C7.37925 19.7608 6.93387 19.1426 6.69317 18.4289H20.5998C21.9675 18.4289 23.2917 17.9252 24.3411 17.0057C25.3905 16.0862 26.0984 14.8093 26.341 13.3982L27.2568 8.07272C27.3483 7.54434 27.3277 7.00135 27.1967 6.48222C27.0656 5.9631 26.8273 5.48054 26.4985 5.06874ZM24.9667 7.63851L24.0497 12.964C23.904 13.8116 23.4785 14.5785 22.8478 15.1304C22.2171 15.6822 21.4214 15.9839 20.5998 15.9826H6.32217L5.22433 6.19768H23.8117C23.9831 6.19661 24.1526 6.23513 24.3081 6.31052C24.4637 6.38591 24.6015 6.4963 24.7118 6.63385C24.822 6.77141 24.902 6.93274 24.9461 7.10638C24.9902 7.28002 24.9972 7.46171 24.9667 7.63851Z" fill="url(#paint0_linear_30383_684)"/>
<path d="M8.16732 29.4369C9.45598 29.4369 10.5006 28.3417 10.5006 26.9907C10.5006 25.6397 9.45598 24.5444 8.16732 24.5444C6.87865 24.5444 5.83398 25.6397 5.83398 26.9907C5.83398 28.3417 6.87865 29.4369 8.16732 29.4369Z" fill="url(#paint1_linear_30383_684)"/>
<path d="M19.8333 29.4369C21.122 29.4369 22.1667 28.3417 22.1667 26.9907C22.1667 25.6397 21.122 24.5444 19.8333 24.5444C18.5447 24.5444 17.5 25.6397 17.5 26.9907C17.5 28.3417 18.5447 29.4369 19.8333 29.4369Z" fill="url(#paint2_linear_30383_684)"/>
</g>
<defs>
<linearGradient id="paint0_linear_30383_684" x1="6.08297" y1="-8.28403" x2="28.6815" y2="-7.27309" gradientUnits="userSpaceOnUse">
<stop stop-color="#5E3928"/>
<stop offset="0.911458" stop-color="#E4A16F"/>
</linearGradient>
<linearGradient id="paint1_linear_30383_684" x1="6.87331" y1="22.7832" x2="10.7371" y2="22.9234" gradientUnits="userSpaceOnUse">
<stop stop-color="#5E3928"/>
<stop offset="0.911458" stop-color="#E4A16F"/>
</linearGradient>
<linearGradient id="paint2_linear_30383_684" x1="18.5393" y1="22.7832" x2="22.4031" y2="22.9234" gradientUnits="userSpaceOnUse">
<stop stop-color="#5E3928"/>
<stop offset="0.911458" stop-color="#E4A16F"/>
</linearGradient>
<clipPath id="clip0_30383_684">
<rect width="28" height="29.3548" fill="white" transform="translate(0 0.0820923)"/>
</clipPath>
</defs>
</svg>
