<svg xmlns="http://www.w3.org/2000/svg" version="1.1" xmlns:xlink="http://www.w3.org/1999/xlink" xmlns:svgjs="http://svgjs.dev/svgjs" width="1500" height="1500" viewBox="0 0 1500 1500"><g transform="matrix(1,0,0,1,-0.21332335329316265,-0.21332335329350371)"><svg viewBox="0 0 334 334" data-background-color="#ececea" preserveAspectRatio="xMidYMid meet" height="1500" width="1500" xmlns="http://www.w3.org/2000/svg" xmlns:xlink="http://www.w3.org/1999/xlink"><g id="tight-bounds" transform="matrix(1,0,0,1,0.04749999999998522,0.04750000000001364)"><svg viewBox="0 0 333.90454557049503 333.90454557049503" height="333.90454557049503" width="333.90454557049503"><g><svg></svg></g><g><svg viewBox="0 0 333.90454557049503 333.90454557049503" height="333.90454557049503" width="333.90454557049503"><g><path d="M0 166.952c0-92.205 74.747-166.952 166.952-166.952 92.205 0 166.952 74.747 166.953 166.952 0 92.205-74.747 166.952-166.953 166.953-92.205 0-166.952-74.747-166.952-166.953zM166.952 329.807c89.942 0 162.855-72.913 162.855-162.855 0-89.942-72.913-162.855-162.855-162.854-89.942 0-162.855 72.913-162.854 162.854 0 89.942 72.913 162.855 162.854 162.855z" data-fill-palette-color="tertiary" fill="#009b7d" stroke="transparent"></path><ellipse rx="160.27418187383762" ry="160.27418187383762" cx="166.95227278524752" cy="166.95227278524752" fill="#009b7d" stroke="transparent" stroke-width="0" fill-opacity="1" data-fill-palette-color="tertiary"></ellipse></g><g transform="matrix(1,0,0,1,88.80701826026512,71.17305217166896)"><svg viewBox="0 0 156.29050904996478 191.55844122715712" height="191.55844122715712" width="156.29050904996478"><g><svg viewBox="0 0 156.29050904996478 191.55844122715712" height="191.55844122715712" width="156.29050904996478"><g><svg viewBox="0 0 213.1584412271571 261.25897845038725" height="191.55844122715712" width="156.29050904996478"><g transform="matrix(1,0,0,1,0,146.3615850636908)"><svg viewBox="0 0 213.1584412271571 114.89739338669645" height="114.89739338669645" width="213.1584412271571"><g id="textblocktransform"><svg viewBox="0 0 213.1584412271571 114.89739338669645" height="114.89739338669645" width="213.1584412271571" id="textblock"><g><svg viewBox="0 0 213.1584412271571 61.97016378330578" height="61.97016378330578" width="213.1584412271571"><g transform="matrix(1,0,0,1,0,0)"><svg width="213.1584412271571" viewBox="2.29 -31.69 110 31.98" height="61.97016378330578" data-palette-color="#ececea"><path d="M5.44-19.19L5.44 0 2.29 0 2.29-23.75 5.44-23.75 5.44-21.53 6.05-21.53Q6.88-22.83 8-23.45 9.11-24.07 11.06-24.07L11.06-24.07Q14.99-24.07 15.89-21.34L15.89-21.34 16.55-21.34Q17.36-22.61 18.6-23.34 19.85-24.07 21.8-24.07L21.8-24.07Q24.41-24.07 25.71-22.86 27-21.66 27-18.82L27-18.82 27 0 23.88 0 23.88-19.09Q23.83-20.31 23.12-20.86 22.41-21.41 20.78-21.41L20.78-21.41Q17.53-21.41 16.26-19.12L16.26-19.12 16.26 0 13.13 0 13.13-19.09Q13.09-20.31 12.38-20.86 11.67-21.41 10.08-21.41L10.08-21.41Q6.62-21.41 5.44-19.19L5.44-19.19ZM36.96 0.27L36.96 0.27Q33.98 0.27 32.55-0.9 31.13-2.08 30.88-4.57L30.88-4.57Q30.86-5.05 30.82-5.54 30.78-6.03 30.83-6.49L30.83-6.49Q31-8.67 32.2-10.14 33.4-11.62 36.74-12.84L36.74-12.84Q38.11-13.33 39.62-13.72 41.14-14.11 42.62-14.48L42.62-14.48 42.62-18.99Q42.62-20.19 41.72-20.76 40.82-21.34 38.57-21.34L38.57-21.34Q36.62-21.34 35.61-20.85 34.59-20.36 34.49-19.07L34.49-19.07Q34.45-18.46 34.45-17.32 34.45-16.19 34.49-15.41L34.49-15.41 31.44-15.41Q31.39-16.02 31.35-16.99 31.3-17.97 31.37-18.73L31.37-18.73Q31.49-21.56 33.21-22.81 34.93-24.07 38.69-24.07L38.69-24.07Q42.62-24.07 44.15-22.71 45.68-21.34 45.7-18.21L45.7-18.21 45.7 0 42.62 0 42.62-2.25 41.94-2.25Q41.33-1.03 40.2-0.38 39.06 0.27 36.96 0.27ZM37.74-2.37L37.74-2.37Q41.26-2.37 42.6-4.47L42.6-4.47 42.6-11.87Q41.43-11.62 40.2-11.29 38.96-10.96 37.3-10.4L37.3-10.4Q35.32-9.67 34.67-8.72 34.01-7.76 33.91-6.49L33.91-6.49Q33.93-6.13 33.95-5.7 33.96-5.27 34.01-4.81L34.01-4.81Q34.18-3.64 35.18-3 36.18-2.37 37.74-2.37ZM53.41-19.19L53.41 0 50.26 0 50.26-23.75 53.41-23.75 53.41-21.53 54.1-21.53Q54.73-22.75 55.78-23.41 56.83-24.07 58.39-24.07L58.39-24.07Q60.74-24.07 61.87-22.84 63.01-21.61 63.01-18.58L63.01-18.58Q63.01-17.92 62.96-17.02 62.91-16.11 62.81-15.41L62.81-15.41 59.79-15.41Q59.83-15.65 59.85-16.26 59.86-16.87 59.87-17.48 59.88-18.09 59.88-18.31L59.88-18.31Q59.88-20.12 59.27-20.76 58.66-21.41 57.32-21.41L57.32-21.41Q54.46-21.41 53.41-19.19L53.41-19.19ZM69.79-7.89L69.79 0 66.74 0 66.74-31.69 69.74-31.69 69.74-23.88 69.47-13.53 70.31-13.53 72.67-18.14 76.34-23.75 79.66-23.75 73.6-14.18 81.07 0 77.78 0 71.75-10.5 69.79-7.89ZM90.83 0.29L90.83 0.29Q86.81 0.29 85.09-0.98 83.36-2.25 83.24-5.13L83.24-5.13Q83.14-6.93 83.11-9.38 83.07-11.82 83.11-14.28 83.14-16.75 83.24-18.58L83.24-18.58Q83.36-21.53 85.13-22.8 86.9-24.07 90.83-24.07L90.83-24.07Q94.55-24.07 96.21-22.83 97.87-21.58 98.04-18.73L98.04-18.73Q98.09-17.87 98.13-15.75 98.18-13.62 97.99-11.23L97.99-11.23 86.29-11.23Q86.29-9.69 86.32-8.11 86.34-6.52 86.42-4.81L86.42-4.81Q86.44-3.47 87.44-2.95 88.44-2.44 90.74-2.44L90.74-2.44Q93.01-2.44 93.94-2.95 94.86-3.47 94.96-4.81L94.96-4.81Q95.03-6.15 94.96-8.47L94.96-8.47 97.99-8.47Q98.11-7.76 98.1-6.82 98.09-5.88 98.04-5.13L98.04-5.13Q97.87-2.25 96.29-0.98 94.72 0.29 90.83 0.29ZM86.29-13.82L86.29-13.82 95.01-13.82Q95.06-15.48 95.06-16.99 95.06-18.51 94.96-19.07L94.96-19.07Q94.86-20.29 93.91-20.81 92.96-21.34 90.83-21.34L90.83-21.34Q88.47-21.34 87.45-20.81 86.44-20.29 86.42-19.07L86.42-19.07Q86.34-17.65 86.31-16.36 86.27-15.06 86.29-13.82ZM109.63 0.29L109.63 0.29Q105.82 0.29 104.49-0.98 103.16-2.25 103.16-5.13L103.16-5.13 103.16-21.02 100.82-21.02 100.82-23.75 103.23-23.75 103.23-30.49 106.34-30.49 106.34-23.75 111.71-23.75 111.71-21.02 106.31-21.02 106.31-4.79Q106.31-3.44 106.87-2.93 107.43-2.42 109.7-2.42L109.7-2.42Q110.63-2.42 111.13-2.45 111.63-2.49 112.29-2.51L112.29-2.51 112.29 0.1Q111.71 0.2 111.02 0.24 110.34 0.29 109.63 0.29Z" opacity="1" transform="matrix(1,0,0,1,0,0)" fill="#ececea" class="wordmark-text-0" data-fill-palette-color="quaternary" id="text-0"></path></svg></g></svg></g><g transform="matrix(1,0,0,1,0,76.59983216861347)"><svg viewBox="0 0 213.1584412271571 38.29756121808297" height="38.29756121808297" width="213.1584412271571"><g transform="matrix(1,0,0,1,0,0)"><svg width="213.1584412271571" viewBox="1.3 -25.75 202.6 36.4" height="38.29756121808297" data-palette-color="#ececea"><path d="M11.5-19.25Q9.3-19.25 8.1-17.68 6.9-16.1 6.9-12.85 6.9-9.6 8.13-7.63 9.35-5.65 11.7-5.65L11.7-5.65Q12.9-5.65 14.05-6.4 15.2-7.15 15.8-7.9L15.8-7.9 16.35-8.7 18.85-6.1Q18.7-5.85 18.48-5.4 18.25-4.95 17.38-3.8 16.5-2.65 15.53-1.78 14.55-0.9 13-0.18 11.45 0.55 9.75 0.55L9.75 0.55Q6 0.55 3.65-2.5 1.3-5.55 1.3-10.45L1.3-10.45Q1.3-16.55 4.85-21.15 8.4-25.75 13.15-25.75L13.15-25.75Q14.6-25.75 16.05-25.33 17.5-24.9 19-24L19-24 15.5-17.85Q13.7-19.25 11.5-19.25ZM34.77-10.45Q34.77-16.85 38.22-21.3 41.67-25.75 46.29-25.75 50.92-25.75 53.49-22.75 56.07-19.75 56.07-14.8L56.07-14.8Q56.07-8.2 52.74-3.83 49.42 0.55 44.37 0.55L44.37 0.55Q40.22 0.55 37.49-2.58 34.77-5.7 34.77-10.45L34.77-10.45ZM50.47-12.2L50.47-12.2Q50.47-19.45 45.52-19.45L45.52-19.45Q40.37-19.45 40.37-12.65L40.37-12.65Q40.37-9.1 41.82-7.1 43.27-5.1 45.64-5.1 48.02-5.1 49.24-6.93 50.47-8.75 50.47-12.2ZM87.84-25.25L87.84-25.25Q91.04-25.25 93.21-22.45 95.39-19.65 95.39-14.9L95.39-14.9Q95.39-8.25 91.96-4.13 88.54 0 83.44 0L83.44 0Q82.39 0 81.09-0.15L81.09-0.15 81.34 9.4 74.49 10.65 75.14-12.15 75.19-12.15Q74.99-18.85 74.09-24.15L74.09-24.15 80.14-25.45Q80.44-22.8 80.64-20.2L80.64-20.2Q80.74-20.45 81.66-21.58 82.59-22.7 84.39-23.98 86.19-25.25 87.84-25.25ZM85.89-18.75L85.89-18.75Q83.24-18.75 80.74-17.3L80.74-17.3 80.74-13 80.94-5.85Q83.64-5.4 85.04-5.4L85.04-5.4Q89.84-5.4 89.84-12.08 89.84-18.75 85.89-18.75ZM127.01-25.25L127.01-25.25Q130.21-25.25 132.38-22.45 134.56-19.65 134.56-14.9L134.56-14.9Q134.56-8.25 131.13-4.13 127.71 0 122.61 0L122.61 0Q121.56 0 120.26-0.15L120.26-0.15 120.51 9.4 113.66 10.65 114.31-12.15 114.36-12.15Q114.16-18.85 113.26-24.15L113.26-24.15 119.31-25.45Q119.61-22.8 119.81-20.2L119.81-20.2Q119.91-20.45 120.83-21.58 121.76-22.7 123.56-23.98 125.36-25.25 127.01-25.25ZM125.06-18.75L125.06-18.75Q122.41-18.75 119.91-17.3L119.91-17.3 119.91-13 120.11-5.85Q122.81-5.4 124.21-5.4L124.21-5.4Q129.01-5.4 129.01-12.08 129.01-18.75 125.06-18.75ZM161.83-5.1L161.83-5.1Q163.28-5.1 164.88-5.85 166.48-6.6 167.38-7.35L167.38-7.35 168.28-8.1 170.58-5.3Q170.08-4.45 169.03-3.35 167.98-2.25 166.9-1.48 165.83-0.7 164.05-0.08 162.28 0.55 160.38 0.55L160.38 0.55Q156.33 0.55 153.78-2.53 151.23-5.6 151.23-10.45L151.23-10.45Q151.23-16.55 154.78-21.15 158.33-25.75 163.08-25.75L163.08-25.75Q166.73-25.75 168.75-23.7 170.78-21.65 170.78-17.95L170.78-17.95Q170.78-15.75 170.03-12.95L170.03-12.95 169.03-11.9 156.53-10.75Q157.38-5.1 161.83-5.1ZM161.83-20.6L161.83-20.6Q159.63-20.6 158.13-18.82 156.63-17.05 156.38-14.3L156.38-14.3 164.88-15.35Q165.03-16.5 165.03-17.25L165.03-17.25Q165.03-20.6 161.83-20.6ZM188.7-24.15L188.7-24.15 194.75-25.45Q195.2-21.6 195.35-18.15L195.35-18.15Q199.9-25.2 203.9-25.2L203.9-25.2 203.35-17.4Q200.45-17.4 198.77-16.88 197.1-16.35 195.35-14.8L195.35-14.8 195.35-13 195.9-1.25 189.2 0 189.8-12.15Q189.6-18.85 188.7-24.15Z" opacity="1" transform="matrix(1,0,0,1,0,0)" fill="#ececea" class="slogan-text-1" data-fill-palette-color="quaternary" id="text-1"></path></svg></g></svg></g></svg></g></svg></g><g transform="matrix(1,0,0,1,40.713262274387006,0)"><svg viewBox="0 0 131.7319166783831 131.7319166783831" height="131.7319166783831" width="131.7319166783831"><g><svg xmlns="http://www.w3.org/2000/svg" xmlns:xlink="http://www.w3.org/1999/xlink" version="1.1" x="0" y="0" viewBox="1 1 70 70" enable-background="new 0 0 72 72" xml:space="preserve" height="131.7319166783831" width="131.7319166783831" class="icon-icon-0" data-fill-palette-color="quaternary" id="icon-0"><g fill="#ececea" data-fill-palette-color="quaternary"><path fill="#ececea" d="M66.5 7.7L62.6 1.3C62.5 1.1 62.2 1 62 1H11C10.8 1 10.5 1.1 10.4 1.3L6.5 7.7C6.4 7.9 6.2 8 5.9 8H1.7C1.3 8 1 8.3 1 8.7V14C1 14.4 1.3 14.7 1.7 14.7H70.3C70.7 14.7 71 14.4 71 14V8.7C71 8.3 70.7 8 70.3 8H67.1C66.8 8 66.6 7.9 66.5 7.7" data-fill-palette-color="quaternary"></path><path fill="#ececea" d="M63.1 17.7H9.7C9.3 17.7 9 18 9 18.4V65.5C9 65.9 8.7 66.2 8.3 66.2H1.7C1.3 66.2 1 66.5 1 66.9V70.4C1 70.7 1.3 71 1.7 71H70.3C70.7 71 71 70.7 71 70.3V66.8C71 66.4 70.7 66.1 70.3 66.1H64.5C64.1 66.1 63.8 65.8 63.8 65.4V18.4C63.8 18 63.5 17.7 63.1 17.7M33.7 66.1H25C24.6 66.1 24.3 65.8 24.3 65.4V46.1C24.3 45.7 24.6 45.4 25 45.4H33.7C34.1 45.4 34.4 45.7 34.4 46.1V65.5C34.4 65.8 34.1 66.1 33.7 66.1M47.8 66.1H39.1C38.7 66.1 38.4 65.8 38.4 65.4V46.1C38.4 45.7 38.7 45.4 39.1 45.4H47.8C48.2 45.4 48.5 45.7 48.5 46.1V65.5C48.5 65.8 48.2 66.1 47.8 66.1M57 42.6H54.8C54.4 42.6 54.1 42.9 54.1 43.3V65.4C54.1 65.8 53.8 66.1 53.4 66.1H51.6C51.2 66.1 50.9 65.8 50.9 65.4V43.3C50.9 42.9 50.6 42.6 50.2 42.6H22.6C22.2 42.6 21.9 42.9 21.9 43.3V65.4C21.9 65.8 21.6 66.1 21.2 66.1H19.4C19 66.1 18.7 65.8 18.7 65.4V43.3C18.7 42.9 18.4 42.6 18 42.6H15.8C15.4 42.6 15.1 42.3 15.1 41.9V40C15.1 39.6 15.4 39.3 15.8 39.3H57C57.4 39.3 57.7 39.6 57.7 40V42C57.7 42.3 57.4 42.6 57 42.6" data-fill-palette-color="quaternary"></path></g></svg></g></svg></g><g></g></svg></g></svg></g></svg></g></svg></g><defs></defs></svg><rect width="333.90454557049503" height="333.90454557049503" fill="none" stroke="none" visibility="hidden"></rect></g></svg></g></svg>